<?xml version="1.0" encoding="UTF-8"?>
<svg width="153px" height="26px" viewBox="0 0 153 26" version="1.1" xmlns="http://www.w3.org/2000/svg" xmlns:xlink="http://www.w3.org/1999/xlink">
    <!-- Generator: Sketch 44 (41411) - http://www.bohemiancoding.com/sketch -->
    <title>techmedia</title>
    <desc>Created with Sketch.</desc>
    <defs></defs>
    <g id="Page-1" stroke="none" stroke-width="1" fill="none" fill-rule="evenodd">
        <g id="Artboard-Copy-6" transform="translate(-129.000000, -11.000000)" fill="#FFFFFF">
            <path d="M136.71875,14.953125 L136.71875,19.09375 L139.6875,19.09375 L139.6875,22.296875 L136.71875,22.296875 L136.71875,30.90625 C136.71875,31.5625033 136.854165,32.0312486 137.125,32.3125 C137.395835,32.5937514 137.760414,32.734375 138.21875,32.734375 C138.531252,32.734375 138.804686,32.7213543 139.039062,32.6953125 C139.273439,32.6692707 139.536457,32.6250003 139.828125,32.5625 L140.21875,35.859375 C139.708331,36.0156258 139.203127,36.1328121 138.703125,36.2109375 C138.203123,36.2890629 137.661461,36.328125 137.078125,36.328125 C135.5052,36.328125 134.294275,35.8958377 133.445312,35.03125 C132.59635,34.1666623 132.171875,32.7968844 132.171875,30.921875 L132.171875,22.296875 L129.6875,22.296875 L129.6875,19.09375 L132.171875,19.09375 L132.171875,14.953125 L136.71875,14.953125 Z M149.158482,36.328125 C146.72097,36.328125 144.773073,35.5468828 143.314732,33.984375 C141.856392,32.4218672 141.127232,30.437512 141.127232,28.03125 L141.127232,27.40625 C141.127232,24.8958208 141.817329,22.8281331 143.197545,21.203125 C144.57776,19.5781169 146.429304,18.7708333 148.752232,18.78125 C151.033494,18.78125 152.804309,19.4687431 154.064732,20.84375 C155.325155,22.2187569 155.955357,24.0781133 155.955357,26.421875 L155.955357,28.90625 L145.861607,28.90625 L145.830357,29 C145.913691,30.1145889 146.286083,31.0312464 146.947545,31.75 C147.609006,32.4687536 148.507435,32.828125 149.642857,32.828125 C150.653279,32.828125 151.491812,32.7265635 152.158482,32.5234375 C152.825152,32.3203115 153.554312,32.0000022 154.345982,31.5625 L155.580357,34.375 C154.882437,34.9270861 153.9788,35.3906231 152.86942,35.765625 C151.760039,36.1406269 150.523072,36.328125 149.158482,36.328125 Z M148.752232,22.296875 C147.908478,22.296875 147.241818,22.6197884 146.752232,23.265625 C146.262646,23.9114616 145.960566,24.7604114 145.845982,25.8125 L145.892857,25.890625 L151.486607,25.890625 L151.486607,25.484375 C151.486607,24.5156202 151.260047,23.7421904 150.80692,23.1640625 C150.353792,22.5859346 149.668903,22.296875 148.752232,22.296875 Z M165.191964,32.828125 C166.004468,32.828125 166.655504,32.5911482 167.145089,32.1171875 C167.634675,31.6432268 167.879464,31.0104206 167.879464,30.21875 L172.004464,30.21875 L172.051339,30.3125 C172.093006,32.0208419 171.452388,33.4505151 170.129464,34.6015625 C168.806541,35.7526099 167.160724,36.328125 165.191964,36.328125 C162.671118,36.328125 160.72843,35.531258 159.363839,33.9375 C157.999249,32.343742 157.316964,30.2968875 157.316964,27.796875 L157.316964,27.328125 C157.316964,24.8385292 158.017478,22.7916747 159.418527,21.1875 C160.819576,19.5833253 162.816951,18.78125 165.410714,18.78125 C166.775305,18.78125 167.999251,18.984373 169.082589,19.390625 C170.165928,19.796877 171.066961,20.369788 171.785714,21.109375 L171.848214,25.625 L168.145089,25.625 L167.395089,22.984375 C167.165922,22.7864573 166.884674,22.6223965 166.551339,22.4921875 C166.218004,22.3619785 165.8378,22.296875 165.410714,22.296875 C164.119041,22.296875 163.207592,22.7656203 162.676339,23.703125 C162.145087,24.6406297 161.879464,25.8489509 161.879464,27.328125 L161.879464,27.796875 C161.879464,29.3072992 162.124254,30.5234329 162.613839,31.4453125 C163.103425,32.3671921 163.962792,32.828125 165.191964,32.828125 Z M173.006697,33.265625 L175.209822,32.796875 L175.209822,14.84375 L172.772322,14.375 L172.772322,11.625 L179.756697,11.625 L179.756697,21.25 C180.287949,20.4687461 180.938984,19.8619813 181.709822,19.4296875 C182.480659,18.9973937 183.334817,18.78125 184.272322,18.78125 C186.043164,18.78125 187.431171,19.3671816 188.436384,20.5390625 C189.441597,21.7109434 189.944197,23.5208211 189.944197,25.96875 L189.944197,32.796875 L192.131697,33.265625 L192.131697,36 L183.412947,36 L183.412947,33.265625 L185.381697,32.796875 L185.381697,25.9375 C185.381697,24.6249934 185.149928,23.6953152 184.686384,23.1484375 C184.22284,22.6015598 183.532743,22.328125 182.616072,22.328125 C181.980652,22.328125 181.42597,22.4427072 180.952009,22.671875 C180.478048,22.9010428 180.079615,23.2239563 179.756697,23.640625 L179.756697,32.796875 L181.725447,33.265625 L181.725447,36 L173.006697,36 L173.006697,33.265625 Z M192.212054,21.84375 L192.212054,19.09375 L198.883929,19.09375 L199.071429,21.328125 C199.613098,20.5156209 200.292779,19.888023 201.110491,19.4453125 C201.928204,19.002602 202.873507,18.78125 203.946429,18.78125 C205.029768,18.78125 205.956842,19.0208309 206.727679,19.5 C207.498516,19.9791691 208.081843,20.7031202 208.477679,21.671875 C208.998515,20.7656205 209.675591,20.0572942 210.508929,19.546875 C211.342266,19.0364558 212.321423,18.78125 213.446429,18.78125 C215.113104,18.78125 216.428195,19.3567651 217.391741,20.5078125 C218.355288,21.6588599 218.837054,23.4114466 218.837054,25.765625 L218.837054,32.796875 L221.040179,33.265625 L221.040179,36 L212.305804,36 L212.305804,33.265625 L214.274554,32.796875 L214.274554,25.75 C214.274554,24.4687436 214.066223,23.5781275 213.649554,23.078125 C213.232885,22.5781225 212.6131,22.328125 211.790179,22.328125 C211.144342,22.328125 210.584452,22.4713527 210.110491,22.7578125 C209.636531,23.0442723 209.25893,23.4427058 208.977679,23.953125 C208.977679,24.1510427 208.982887,24.3203118 208.993304,24.4609375 C209.00372,24.6015632 209.008929,24.7447909 209.008929,24.890625 L209.008929,32.796875 L210.852679,33.265625 L210.852679,36 L202.618304,36 L202.618304,33.265625 L204.462054,32.796875 L204.462054,25.75 C204.462054,24.4999938 204.253723,23.6171901 203.837054,23.1015625 C203.420385,22.5859349 202.795391,22.328125 201.962054,22.328125 C201.347467,22.328125 200.80841,22.4453113 200.344866,22.6796875 C199.881322,22.9140637 199.498514,23.2447895 199.196429,23.671875 L199.196429,32.796875 L201.165179,33.265625 L201.165179,36 L192.446429,36 L192.446429,33.265625 L194.649554,32.796875 L194.649554,22.3125 L192.212054,21.84375 Z M229.589286,36.328125 C227.151774,36.328125 225.203877,35.5468828 223.745536,33.984375 C222.287195,32.4218672 221.558036,30.437512 221.558036,28.03125 L221.558036,27.40625 C221.558036,24.8958208 222.248133,22.8281331 223.628348,21.203125 C225.008564,19.5781169 226.860108,18.7708333 229.183036,18.78125 C231.464297,18.78125 233.235113,19.4687431 234.495536,20.84375 C235.755959,22.2187569 236.386161,24.0781133 236.386161,26.421875 L236.386161,28.90625 L226.292411,28.90625 L226.261161,29 C226.344495,30.1145889 226.716887,31.0312464 227.378348,31.75 C228.03981,32.4687536 228.938239,32.828125 230.073661,32.828125 C231.084083,32.828125 231.922616,32.7265635 232.589286,32.5234375 C233.255956,32.3203115 233.985115,32.0000022 234.776786,31.5625 L236.011161,34.375 C235.313241,34.9270861 234.409604,35.3906231 233.300223,35.765625 C232.190843,36.1406269 230.953876,36.328125 229.589286,36.328125 Z M229.183036,22.296875 C228.339282,22.296875 227.672622,22.6197884 227.183036,23.265625 C226.69345,23.9114616 226.39137,24.7604114 226.276786,25.8125 L226.323661,25.890625 L231.917411,25.890625 L231.917411,25.484375 C231.917411,24.5156202 231.690851,23.7421904 231.237723,23.1640625 C230.784596,22.5859346 230.099707,22.296875 229.183036,22.296875 Z M248.685268,33.9375 C248.154016,34.7187539 247.526418,35.312498 246.802456,35.71875 C246.078494,36.125002 245.252981,36.328125 244.325893,36.328125 C242.242549,36.328125 240.625378,35.5677159 239.474331,34.046875 C238.323283,32.5260341 237.747768,30.5156375 237.747768,28.015625 L237.747768,27.6875 C237.747768,25.02082 238.325887,22.8697998 239.482143,21.234375 C240.638399,19.5989502 242.263383,18.78125 244.357143,18.78125 C245.200897,18.78125 245.961306,18.966144 246.638393,19.3359375 C247.31548,19.705731 247.909224,20.2291633 248.419643,20.90625 L248.419643,14.84375 L245.982143,14.375 L245.982143,11.625 L252.982143,11.625 L252.982143,32.796875 L255.169643,33.265625 L255.169643,36 L249.029018,36 L248.685268,33.9375 Z M242.310268,28.015625 C242.310268,29.4947991 242.557662,30.6588499 243.052456,31.5078125 C243.54725,32.3567751 244.357138,32.78125 245.482143,32.78125 C246.148813,32.78125 246.726932,32.6458347 247.216518,32.375 C247.706104,32.1041653 248.107142,31.7135442 248.419643,31.203125 L248.419643,24.03125 C248.107142,23.4895806 247.708708,23.070314 247.224331,22.7734375 C246.739953,22.476561 246.169646,22.328125 245.513393,22.328125 C244.398804,22.328125 243.586312,22.8229117 243.075893,23.8125 C242.565474,24.8020883 242.310268,26.093742 242.310268,27.6875 L242.310268,28.015625 Z M255.625,33.265625 L257.828125,32.796875 L257.828125,22.3125 L255.390625,21.84375 L255.390625,19.09375 L262.390625,19.09375 L262.390625,32.796875 L264.578125,33.265625 L264.578125,36 L255.625,36 L255.625,33.265625 Z M262.390625,15.046875 L257.828125,15.046875 L257.828125,11.625 L262.390625,11.625 L262.390625,15.046875 Z M275.986608,36 C275.861607,35.7187486 275.752233,35.429689 275.658483,35.1328125 C275.564732,34.835936 275.491816,34.5364598 275.439733,34.234375 C274.898063,34.8593781 274.239216,35.3645814 273.46317,35.75 C272.687125,36.1354186 271.799113,36.328125 270.799108,36.328125 C269.142849,36.328125 267.827758,35.8776087 266.853795,34.9765625 C265.879832,34.0755163 265.392858,32.8489661 265.392858,31.296875 C265.392858,29.7135337 266.028268,28.4895877 267.299108,27.625 C268.569947,26.7604123 270.434512,26.328125 272.892858,26.328125 L275.220983,26.328125 L275.220983,24.671875 C275.220983,23.8593709 274.98661,23.2291689 274.517858,22.78125 C274.049105,22.3333311 273.356404,22.109375 272.439733,22.109375 C271.918897,22.109375 271.45536,22.1692702 271.049108,22.2890625 C270.642856,22.4088548 270.314734,22.5520825 270.064733,22.71875 L269.767858,24.53125 L266.330358,24.53125 L266.345983,20.78125 C267.17932,20.2187472 268.13504,19.7447936 269.21317,19.359375 C270.2913,18.9739564 271.465768,18.78125 272.736608,18.78125 C274.830368,18.78125 276.530872,19.2942657 277.83817,20.3203125 C279.145468,21.3463593 279.799108,22.8072822 279.799108,24.703125 L279.799108,31.6875 C279.799108,31.947918 279.801712,32.1927072 279.80692,32.421875 C279.812128,32.6510428 279.830357,32.8697906 279.861608,33.078125 L281.252233,33.265625 L281.252233,36 L275.986608,36 Z M272.033483,32.953125 C272.720986,32.953125 273.34598,32.804689 273.908483,32.5078125 C274.470985,32.210936 274.908481,31.8385439 275.220983,31.390625 L275.220983,28.8125 L272.892858,28.8125 C271.924103,28.8125 271.189735,29.0390602 270.689733,29.4921875 C270.18973,29.9453148 269.939733,30.4895802 269.939733,31.125 C269.939733,31.6979195 270.124627,32.1458317 270.49442,32.46875 C270.864214,32.7916683 271.377229,32.953125 272.033483,32.953125 Z" id="techmedia"></path>
        </g>
    </g>
</svg>